<?xml version="1.0" standalone="no"?>
<!DOCTYPE svg PUBLIC "-//W3C//DTD SVG 20010904//EN"
 "http://www.w3.org/TR/2001/REC-SVG-20010904/DTD/svg10.dtd">
<svg version="1.0" xmlns="http://www.w3.org/2000/svg"
 width="500.000000pt" height="500.000000pt" viewBox="0 0 500.000000 500.000000"
 preserveAspectRatio="xMidYMid meet">

<g transform="translate(0.000000,500.000000) scale(0.100000,-0.100000)"
fill="#000000" stroke="none">
<path d="M2590 3168 c-21 -6 -245 -13 -545 -17 -505 -6 -511 -6 -560 -29 -141
-65 -193 -212 -114 -324 29 -41 40 -34 24 13 -39 111 4 208 115 258 41 19 65
21 288 21 l242 0 0 -295 0 -295 65 0 65 0 0 295 0 295 201 0 201 0 34 -34 c26
-26 34 -42 34 -69 0 -20 5 -39 10 -42 6 -4 10 37 10 114 0 134 3 130 -70 109z"/>
<path d="M2922 3009 c-216 -36 -411 -176 -500 -359 -23 -47 -45 -100 -48 -117
l-6 -33 65 0 65 0 22 68 c59 184 210 331 385 377 33 8 100 15 150 15 156 0
273 -43 373 -135 51 -47 112 -142 112 -174 0 -6 5 -11 11 -11 6 0 8 11 5 28
-3 15 -10 63 -16 107 -17 124 -16 123 -68 149 -151 77 -384 113 -550 85z"/>
<path d="M1493 2419 c-18 -6 -23 -16 -23 -43 0 -30 4 -37 25 -42 27 -7 62 2
51 13 -4 4 -17 8 -29 8 -15 0 -23 7 -25 23 -3 22 4 26 41 23 9 -1 17 0 17 3 0
13 -37 23 -57 15z"/>
<path d="M3484 2416 c-20 -15 -13 -46 11 -46 8 0 15 -5 15 -11 0 -7 -10 -9
-27 -4 -23 5 -25 4 -14 -9 17 -21 45 -20 62 0 11 14 10 18 -6 30 -10 8 -22 14
-27 14 -4 0 -8 5 -8 11 0 6 9 8 20 4 11 -3 20 -2 20 3 0 17 -27 21 -46 8z"/>
<path d="M1640 2375 c0 -43 1 -45 30 -45 17 0 30 5 30 10 0 6 -9 10 -20 10
-16 0 -20 7 -20 35 0 19 -4 35 -10 35 -5 0 -10 -20 -10 -45z"/>
<path d="M1806 2379 c-9 -23 -14 -44 -10 -48 4 -3 9 0 11 7 6 15 35 16 51 0
20 -20 22 -3 5 40 -9 23 -22 42 -28 42 -7 0 -20 -19 -29 -41z m34 1 c0 -5 -5
-10 -11 -10 -5 0 -7 5 -4 10 3 6 8 10 11 10 2 0 4 -4 4 -10z"/>
<path d="M1970 2387 c0 -39 15 -57 47 -57 26 0 47 40 38 71 -10 31 -25 21 -25
-17 0 -28 -3 -35 -17 -32 -12 2 -19 14 -21 36 -4 42 -22 42 -22 -1z"/>
<path d="M2150 2375 c0 -42 2 -45 26 -45 38 0 64 18 64 43 0 32 -18 47 -57 47
-32 0 -33 -1 -33 -45z m68 -3 c-2 -9 -11 -18 -21 -20 -13 -3 -17 3 -17 28 0
28 2 30 21 20 11 -6 19 -19 17 -28z"/>
<path d="M2340 2375 c0 -25 5 -45 10 -45 6 0 10 20 10 45 0 25 -4 45 -10 45
-5 0 -10 -20 -10 -45z"/>
<path d="M2468 2378 c-19 -43 -16 -60 4 -40 16 16 45 15 51 0 2 -7 7 -10 11
-7 10 9 -24 89 -38 89 -6 0 -19 -19 -28 -42z m37 2 c3 -5 1 -10 -4 -10 -6 0
-11 5 -11 10 0 6 2 10 4 10 3 0 8 -4 11 -10z"/>
<path d="M2753 2409 c11 -6 17 -22 17 -44 0 -19 5 -35 10 -35 6 0 10 18 10 39
0 29 5 41 18 44 9 3 -3 5 -28 6 -35 0 -41 -2 -27 -10z"/>
<path d="M2920 2379 c-19 -45 -19 -62 2 -41 15 15 48 16 48 2 0 -5 7 -10 15
-10 12 0 11 7 -4 42 -9 23 -23 44 -29 46 -7 2 -21 -16 -32 -39z m35 1 c3 -5 1
-10 -4 -10 -6 0 -11 5 -11 10 0 6 2 10 4 10 3 0 8 -4 11 -10z"/>
<path d="M3090 2375 c0 -25 5 -45 10 -45 6 0 10 8 10 17 0 15 2 14 15 -3 15
-19 15 -19 30 0 13 17 15 18 15 3 0 -9 5 -17 10 -17 6 0 10 20 10 45 0 50 -14
59 -32 20 -6 -14 -14 -25 -18 -25 -4 0 -12 11 -18 25 -18 39 -32 30 -32 -20z"/>
<path d="M3302 2378 c-12 -27 -15 -45 -8 -47 5 -2 12 1 14 8 5 14 35 14 50 -1
6 -6 14 -10 16 -7 8 7 -32 89 -43 89 -6 0 -19 -19 -29 -42z m38 2 c0 -5 -5
-10 -11 -10 -5 0 -7 5 -4 10 3 6 8 10 11 10 2 0 4 -4 4 -10z"/>
<path d="M2040 2080 l0 -180 -33 -36 c-24 -26 -43 -37 -75 -41 -23 -3 -42 -10
-42 -14 0 -5 97 -9 216 -9 141 0 213 3 209 10 -3 6 -17 10 -31 10 -33 0 -79
24 -98 52 -13 18 -16 56 -16 205 l0 183 -65 0 -65 0 0 -180z"/>
<path d="M2360 2241 c0 -11 11 -55 25 -98 66 -207 252 -373 490 -434 112 -28
299 -28 408 0 216 57 362 203 417 417 21 82 26 134 11 134 -5 0 -16 -30 -25
-67 -38 -152 -120 -271 -241 -351 -98 -67 -181 -92 -315 -99 -199 -10 -334 39
-461 166 -81 81 -138 179 -160 276 -7 28 -13 56 -15 63 -2 8 -25 12 -69 12
-58 0 -65 -2 -65 -19z"/>
</g>
</svg>
